<?xml version="1.0" standalone="no"?>
<!DOCTYPE svg PUBLIC "-//W3C//DTD SVG 20010904//EN"
 "http://www.w3.org/TR/2001/REC-SVG-20010904/DTD/svg10.dtd">
<svg version="1.0" xmlns="http://www.w3.org/2000/svg"
 width="500.000000pt" height="500.000000pt" viewBox="0 0 500.000000 500.000000"
 preserveAspectRatio="xMidYMid meet">
<metadata>
Created by potrace 1.11, written by Peter Selinger 2001-2013
</metadata>
<g transform="translate(0.000000,500.000000) scale(0.100000,-0.100000)"
fill="#000000" stroke="none">
<path d="M206 4791 c-2 -3 -2 -577 -1 -1276 1 -873 5 -1290 13 -1335 6 -36 13
-81 16 -100 18 -112 81 -330 130 -450 29 -69 88 -192 96 -200 3 -3 16 -29 30
-57 14 -29 28 -53 33 -53 4 0 7 -5 7 -12 0 -27 178 -271 272 -373 20 -22 45
-49 55 -60 20 -22 121 -115 168 -155 61 -52 233 -169 330 -225 153 -88 345
-173 480 -211 33 -10 66 -22 73 -27 6 -5 12 -7 12 -4 0 3 15 1 33 -4 17 -5 46
-12 62 -15 17 -2 37 -7 45 -9 8 -2 40 -7 70 -10 30 -4 57 -8 60 -10 3 -2 66
-7 140 -11 253 -15 468 -3 655 37 28 6 59 12 71 15 38 7 214 63 252 80 20 9
46 20 57 24 139 54 405 199 461 251 11 10 25 19 30 19 5 0 21 10 34 23 14 12
46 38 70 57 90 69 203 179 296 288 95 112 103 122 116 145 6 12 16 27 22 34
25 28 46 61 77 121 10 18 22 38 28 45 39 48 202 406 214 473 2 11 11 44 20 74
9 30 19 69 22 85 8 38 13 60 15 60 1 0 3 11 6 25 2 14 6 39 9 55 30 190 24
671 -11 827 -4 18 -8 42 -10 53 -12 71 -55 206 -117 371 -25 64 -63 142 -112
229 -25 44 -51 91 -58 105 -6 14 -14 27 -17 30 -3 3 -17 23 -30 45 -13 22 -30
46 -37 53 -7 7 -13 16 -13 20 0 4 -14 21 -30 39 -17 18 -30 36 -30 42 0 5 -6
14 -13 18 -7 4 -20 20 -29 34 -19 31 -243 259 -253 259 -4 0 -15 8 -24 18 -23
26 -136 112 -146 112 -5 0 -20 10 -34 23 -90 82 -475 275 -601 302 -19 4 -39
11 -45 15 -10 7 -80 27 -123 35 -13 2 -31 6 -40 9 -9 3 -33 8 -52 10 -19 3
-51 9 -71 14 -20 5 -55 9 -78 8 -22 0 -41 2 -41 6 0 4 -8 7 -17 8 -77 4 -2545
5 -2547 1z"/>
</g>
</svg>
